<?xml version="1.0" encoding="UTF-8" ?>
<!DOCTYPE svg PUBLIC "-//W3C//DTD SVG 1.1//EN" "http://www.w3.org/Graphics/SVG/1.1/DTD/svg11.dtd">
<svg width="1024pt" height="1024pt" viewBox="0 0 1024 1024" version="1.1" xmlns="http://www.w3.org/2000/svg">
<g id="#17031fff">
</g>
<g id="#200329ff">
</g>
<g id="#1c0223ff">
<path fill="#1c0223" opacity="1.00" d=" M 232.81 0.00 L 235.98 0.00 C 238.85 2.61 230.85 4.67 232.81 0.00 Z" />
</g>
<g id="#26032eff">
</g>
<g id="#21032aff">
</g>
<g id="#1a0323ff">
</g>
<g id="#13031aff">
</g>
<g id="#22022cff">
<path fill="#22022c" opacity="1.00" d=" M 385.13 3.47 C 390.79 3.73 384.25 8.92 385.13 3.47 Z" />
<path fill="#22022c" opacity="1.00" d=" M 291.20 34.36 C 295.61 34.69 290.27 39.02 291.20 34.36 Z" />
</g>
<g id="#22032bff">
<path fill="#22032b" opacity="1.00" d=" M 362.95 8.91 C 367.22 8.51 368.02 19.81 365.15 13.87 C 365.36 7.74 359.22 23.14 362.95 8.91 Z" />
<path fill="#22032b" opacity="1.00" d=" M 139.93 132.07 C 143.07 131.01 138.87 128.94 139.93 132.07 Z" />
<path fill="#22032b" opacity="1.00" d=" M 35.28 283.05 C 30.13 282.93 35.94 288.63 35.28 283.05 Z" />
</g>
<g id="#23032bff">
<path fill="#23032b" opacity="1.00" d=" M 338.13 16.07 C 334.47 19.26 339.57 21.12 338.13 16.07 Z" />
<path fill="#23032b" opacity="1.00" d=" M 99.78 180.53 C 97.43 183.99 102.97 183.24 99.78 180.53 Z" />
<path fill="#23032b" opacity="1.00" d=" M 43.05 274.96 C 39.91 275.91 44.26 278.04 43.05 274.96 Z" />
</g>
<g id="#23032cff">
<path fill="#23032c" opacity="1.00" d=" M 332.91 20.21 C 334.41 23.11 335.80 18.56 332.91 20.21 Z" />
<path fill="#23032c" opacity="1.00" d=" M 847.53 138.48 C 856.36 140.26 845.84 134.75 853.92 136.67 C 856.01 142.69 851.58 141.95 847.53 138.48 Z" />
</g>
<g id="#2c0433ff">
</g>
<g id="#23022bff">
<path fill="#23022b" opacity="1.00" d=" M 295.10 31.26 C 298.37 31.45 293.56 34.30 295.10 31.26 Z" />
<path fill="#23022b" opacity="1.00" d=" M 26.67 290.19 C 31.39 288.58 26.96 285.19 26.67 290.19 Z" />
</g>
<g id="#310537ff">
</g>
<g id="#38073dff">
</g>
<g id="#22022bff">
<path fill="#22022b" opacity="1.00" d=" M 165.27 116.90 C 162.19 114.16 162.69 120.07 165.27 116.90 Z" />
</g>
<g id="#1b0324ff">
<path fill="#1b0324" opacity="1.00" d=" M 62.98 137.01 C 66.15 141.33 68.49 135.33 62.98 137.01 Z" />
</g>
<g id="#22012aff">
<path fill="#22012a" opacity="1.00" d=" M 131.65 137.71 C 131.80 141.85 135.86 137.73 131.65 137.71 Z" />
</g>
<g id="#290231ff">
<path fill="#290231" opacity="1.00" d=" M 810.10 157.26 C 813.36 157.45 808.56 160.29 810.10 157.26 Z" />
</g>
<g id="#3e0843ff">
</g>
<g id="#23052bff">
<path fill="#23052b" opacity="1.00" d=" M 111.01 168.94 C 109.71 171.99 114.10 169.99 111.01 168.94 Z" />
</g>
<g id="#1b0424ff">
<path fill="#1b0424" opacity="1.00" d=" M 13.88 194.86 C 14.85 198.02 17.04 193.85 13.88 194.86 Z" />
</g>
<g id="#1a0324ff">
<path fill="#1a0324" opacity="1.00" d=" M 13.46 197.11 C 17.74 197.53 12.44 201.90 13.46 197.11 Z" />
</g>
<g id="#460b4bff">
</g>
<g id="#030304ff">
<path fill="#030304" opacity="1.00" d=" M 698.20 306.10 C 734.17 296.79 775.22 318.24 785.46 354.49 C 790.74 373.53 787.39 393.47 788.05 412.90 C 807.40 413.30 826.76 412.72 846.12 413.10 C 858.82 414.97 871.80 413.24 884.56 414.92 C 897.55 418.18 909.20 425.18 919.95 432.98 C 950.39 460.76 952.99 510.77 932.77 544.84 C 923.50 560.22 907.51 570.11 890.80 575.76 C 877.96 577.64 864.98 578.17 852.02 577.98 C 831.03 578.12 810.04 577.79 789.07 578.10 C 788.22 613.36 790.59 648.82 786.91 683.95 C 781.31 709.14 771.13 734.92 750.82 751.81 C 736.22 765.86 717.20 774.24 697.98 779.92 C 664.05 786.96 629.26 780.08 595.00 782.00 C 576.98 782.18 558.79 782.59 541.08 778.77 C 472.99 763.85 422.44 703.22 405.23 637.67 C 398.91 679.46 413.84 729.77 379.95 762.82 C 365.78 777.08 345.67 785.41 325.48 783.59 C 288.30 780.89 261.61 745.15 258.12 709.96 C 257.75 624.36 258.25 538.74 257.88 453.15 C 232.31 451.34 206.69 453.75 181.10 452.68 C 166.59 452.11 150.83 449.00 139.89 438.75 C 128.72 432.29 121.99 421.04 116.22 409.95 C 105.09 378.57 108.21 336.31 139.09 317.11 C 167.66 298.19 204.04 308.70 236.00 306.00 C 341.43 305.76 446.88 306.48 552.30 305.64 C 605.71 309.22 643.62 361.98 644.12 413.01 C 649.89 410.26 644.03 396.59 645.47 390.56 C 638.92 353.92 661.72 315.46 698.20 306.10 M 176.98 333.97 C 162.13 334.67 148.58 345.03 142.06 358.01 C 129.90 379.39 145.50 409.22 169.99 411.02 C 288.43 413.29 411.00 411.39 531.03 411.97 C 548.43 411.96 565.85 412.23 583.26 411.77 C 593.13 412.46 603.06 411.85 612.96 411.94 C 613.88 394.81 609.68 375.27 597.10 362.98 C 593.15 355.43 586.01 351.19 579.77 345.78 C 572.38 340.46 561.24 335.53 551.37 335.12 L 550.22 335.06 C 538.02 332.51 522.47 334.73 509.01 334.01 L 508.97 333.04 C 398.62 333.59 285.78 331.73 176.98 333.97 M 707.96 333.98 C 690.76 337.41 677.07 352.90 673.97 369.95 C 670.97 382.41 674.09 399.94 673.05 413.91 C 692.78 414.01 712.54 414.27 732.27 413.69 C 741.15 414.25 750.07 414.06 758.98 413.95 C 761.40 402.43 760.15 382.74 759.03 370.97 C 757.37 352.60 742.11 336.93 724.03 333.96 C 721.62 331.52 710.43 332.71 707.96 333.98 M 286.05 439.05 C 285.91 449.71 285.94 460.37 286.04 471.04 C 286.17 493.57 285.53 516.15 286.38 538.65 C 286.14 595.75 284.96 655.46 286.97 711.01 C 290.74 740.75 331.56 756.50 354.91 737.92 C 377.58 722.44 373.53 691.70 372.99 667.99 C 374.68 638.65 374.67 602.35 373.00 573.01 C 373.05 567.27 373.01 561.55 372.92 555.84 C 373.11 517.24 372.99 478.62 372.96 440.02 C 346.12 437.53 314.59 439.71 286.05 439.05 M 577.98 444.98 C 506.36 450.16 443.62 512.20 435.13 583.13 C 432.18 590.64 434.07 607.93 434.97 616.00 C 437.68 650.50 455.12 682.76 479.78 706.23 C 481.80 710.40 483.03 705.67 483.92 703.91 C 493.04 682.96 500.56 661.32 509.04 640.10 C 512.27 628.49 520.95 618.58 516.92 606.00 C 512.78 569.80 541.39 535.14 577.64 532.57 C 677.39 532.93 779.80 534.02 878.01 532.01 C 892.35 531.46 906.15 522.52 912.55 509.63 C 927.14 482.23 906.38 446.48 876.02 444.97 C 778.73 443.34 675.15 443.36 577.98 444.98 M 427.48 452.60 C 419.72 453.56 411.86 452.67 404.07 453.04 C 404.07 492.82 405.62 532.38 405.01 572.19 C 410.59 556.23 412.85 537.92 421.78 522.84 C 435.02 495.15 457.17 471.93 479.06 452.08 C 461.87 452.21 444.61 451.30 427.48 452.60 M 673.09 562.05 C 672.95 581.78 672.79 601.55 673.25 621.29 C 671.62 641.39 653.36 653.58 635.14 657.12 C 601.83 657.53 565.56 655.70 534.10 658.03 C 523.84 679.14 517.80 704.56 506.13 725.93 C 523.30 736.28 542.94 743.30 562.98 745.03 C 599.51 746.66 642.57 746.65 679.01 745.01 C 718.74 742.44 756.58 711.20 759.00 670.02 C 760.84 636.28 760.54 595.54 759.01 562.05 C 730.37 561.95 701.73 561.96 673.09 562.05 M 608.47 568.56 C 579.40 569.44 546.20 590.30 549.13 622.77 C 555.79 625.75 562.92 629.57 570.51 627.42 C 592.81 625.02 616.35 630.03 637.99 625.02 C 653.00 610.80 641.41 586.21 644.95 568.07 C 632.80 568.09 620.58 567.43 608.47 568.56 Z" />
</g>
<g id="#39054fff">
<path fill="#39054f" opacity="1.00" d=" M 176.98 333.97 C 285.78 331.73 398.62 333.59 508.97 333.04 L 509.01 334.01 C 488.72 334.06 468.44 333.91 448.17 334.03 C 419.06 333.96 389.96 333.99 360.85 334.02 C 334.59 333.96 308.32 334.01 282.06 333.99 C 261.41 334.03 240.76 333.98 220.11 333.98 C 205.73 333.96 191.35 334.06 176.98 333.97 Z" />
</g>
<g id="#818182ff">
<path fill="#818182" opacity="1.00" d=" M 707.96 333.98 C 710.43 332.71 721.62 331.52 724.03 333.96 C 718.64 333.98 713.32 334.02 707.96 333.98 Z" />
</g>
<g id="#8e02ebff">
<path fill="#8e02eb" opacity="1.00" d=" M 142.06 358.01 C 148.58 345.03 162.13 334.67 176.98 333.97 C 191.35 334.06 205.73 333.96 220.11 333.98 C 218.55 338.13 213.35 340.39 209.83 338.99 C 204.10 343.02 209.56 342.05 213.30 343.70 C 211.29 345.58 208.54 346.28 206.11 347.41 C 207.23 350.60 210.32 346.58 212.32 346.11 C 210.95 348.39 209.33 350.52 207.97 352.82 C 211.25 352.87 213.46 353.38 209.11 354.35 C 213.25 355.89 208.50 359.29 211.49 361.49 C 216.25 364.55 210.03 366.00 209.21 370.95 C 213.53 374.22 208.74 379.06 213.61 382.41 C 216.71 386.53 211.45 386.52 211.50 381.98 C 208.12 388.47 202.69 392.91 205.16 400.67 C 204.82 405.71 208.13 408.27 201.61 410.86 C 191.07 411.12 180.52 410.94 169.99 411.02 C 145.50 409.22 129.90 379.39 142.06 358.01 Z" />
</g>
<g id="#a502f3ff">
<path fill="#a502f3" opacity="1.00" d=" M 220.11 333.98 C 240.76 333.98 261.41 334.03 282.06 333.99 C 278.44 338.61 276.88 344.56 273.15 348.90 C 278.07 349.75 271.59 359.31 277.18 360.93 C 281.21 361.54 275.43 367.28 274.40 363.24 C 270.61 366.75 278.84 365.60 273.69 367.71 C 269.18 368.69 275.91 373.44 277.45 370.20 C 273.67 374.75 270.88 383.25 277.58 386.66 C 279.32 389.84 275.21 390.27 273.12 389.04 C 278.01 394.10 266.80 390.64 273.85 396.20 C 278.42 389.16 276.02 397.28 272.74 399.99 C 282.31 393.09 272.56 403.98 277.10 409.51 C 281.52 409.55 285.94 409.45 290.26 410.73 C 260.71 411.23 231.15 411.03 201.61 410.86 C 208.13 408.27 204.82 405.71 205.16 400.67 C 202.69 392.91 208.12 388.47 211.50 381.98 C 211.45 386.52 216.71 386.53 213.61 382.41 C 208.74 379.06 213.53 374.22 209.21 370.95 C 210.03 366.00 216.25 364.55 211.49 361.49 C 208.50 359.29 213.25 355.89 209.11 354.35 C 213.46 353.38 211.25 352.87 207.97 352.82 C 209.33 350.52 210.95 348.39 212.32 346.11 C 210.32 346.58 207.23 350.60 206.11 347.41 C 208.54 346.28 211.29 345.58 213.30 343.70 C 209.56 342.05 204.10 343.02 209.83 338.99 C 213.35 340.39 218.55 338.13 220.11 333.98 Z" />
</g>
<g id="#be01fbff">
<path fill="#be01fb" opacity="1.00" d=" M 282.06 333.99 C 308.32 334.01 334.59 333.96 360.85 334.02 C 365.81 337.01 354.50 334.80 353.17 339.33 C 352.58 343.86 351.70 342.85 346.51 347.27 C 349.14 350.39 346.39 355.28 342.89 356.59 C 348.87 356.31 341.37 363.19 342.93 364.85 C 348.14 365.85 340.27 365.61 343.10 367.04 C 347.12 369.58 339.86 372.88 340.70 367.17 C 335.25 370.12 347.60 375.54 336.89 372.94 C 344.34 376.42 339.77 383.69 341.49 390.69 C 336.20 391.91 341.68 395.72 338.15 399.27 C 344.08 392.85 340.88 409.65 349.13 408.60 C 359.15 409.76 369.34 409.25 379.30 410.71 C 349.63 411.15 319.92 411.23 290.26 410.73 C 285.94 409.45 281.52 409.55 277.10 409.51 C 272.56 403.98 282.31 393.09 272.74 399.99 C 276.02 397.28 278.42 389.16 273.85 396.20 C 266.80 390.64 278.01 394.10 273.12 389.04 C 275.21 390.27 279.32 389.84 277.58 386.66 C 270.88 383.25 273.67 374.75 277.45 370.20 C 275.91 373.44 269.18 368.69 273.69 367.71 C 278.84 365.60 270.61 366.75 274.40 363.24 C 275.43 367.28 281.21 361.54 277.18 360.93 C 271.59 359.31 278.07 349.75 273.15 348.90 C 276.88 344.56 278.44 338.61 282.06 333.99 Z" />
</g>
<g id="#d303feff">
<path fill="#d303fe" opacity="1.00" d=" M 360.85 334.02 C 389.96 333.99 419.06 333.96 448.17 334.03 C 447.60 340.82 445.78 338.22 442.00 342.01 C 442.25 345.55 443.56 355.04 437.10 356.68 C 439.59 363.27 434.56 369.13 434.10 375.93 C 437.28 379.66 429.87 386.65 434.87 386.13 C 430.26 391.12 432.31 400.87 435.32 404.38 C 439.47 408.64 449.88 406.09 455.30 410.80 C 429.97 410.95 404.61 411.39 379.30 410.71 C 369.34 409.25 359.15 409.76 349.13 408.60 C 340.88 409.65 344.08 392.85 338.15 399.27 C 341.68 395.72 336.20 391.91 341.49 390.69 C 339.77 383.69 344.34 376.42 336.89 372.94 C 347.60 375.54 335.25 370.12 340.70 367.17 C 339.86 372.88 347.12 369.58 343.10 367.04 C 340.27 365.61 348.14 365.85 342.93 364.85 C 341.37 363.19 348.87 356.31 342.89 356.59 C 346.39 355.28 349.14 350.39 346.51 347.27 C 351.70 342.85 352.58 343.86 353.17 339.33 C 354.50 334.80 365.81 337.01 360.85 334.02 Z" />
</g>
<g id="#dd20fdff">
<path fill="#dd20fd" opacity="1.00" d=" M 448.17 334.03 C 468.44 333.91 488.72 334.06 509.01 334.01 C 522.47 334.73 538.02 332.51 550.22 335.06 C 529.12 334.92 508.02 335.05 486.92 334.95 C 496.22 338.41 479.34 352.13 486.94 354.16 C 483.58 355.57 487.03 356.33 488.72 357.23 C 485.02 360.14 479.50 366.74 485.11 370.02 C 471.87 369.13 488.42 370.88 481.84 375.04 C 479.76 379.03 482.16 385.40 484.21 388.72 C 479.57 392.47 482.05 401.78 485.44 403.48 C 481.93 408.24 490.16 401.84 490.55 406.43 C 493.41 410.15 500.53 406.58 504.36 410.80 C 488.01 411.01 471.63 411.26 455.30 410.80 C 449.88 406.09 439.47 408.64 435.32 404.38 C 432.31 400.87 430.26 391.12 434.87 386.13 C 429.87 386.65 437.28 379.66 434.10 375.93 C 434.56 369.13 439.59 363.27 437.10 356.68 C 443.56 355.04 442.25 345.55 442.00 342.01 C 445.78 338.22 447.60 340.82 448.17 334.03 Z" />
</g>
<g id="#fdfdfdff">
<path fill="#fdfdfd" opacity="1.00" d=" M 673.97 369.95 C 677.07 352.90 690.76 337.41 707.96 333.98 C 713.32 334.02 718.64 333.98 724.03 333.96 C 742.11 336.93 757.37 352.60 759.03 370.97 C 758.97 385.30 759.02 399.62 758.98 413.95 C 750.07 414.06 741.15 414.25 732.27 413.69 C 712.92 411.99 693.45 413.68 674.07 412.87 C 673.78 398.56 674.14 384.25 673.97 369.95 Z" />
</g>
<g id="#e438feff">
<path fill="#e438fe" opacity="1.00" d=" M 486.92 334.95 C 508.02 335.05 529.12 334.92 550.22 335.06 L 551.37 335.12 C 548.12 340.38 539.74 348.54 545.47 352.49 C 537.04 349.42 543.47 357.63 538.90 359.98 C 537.38 368.27 534.38 374.98 532.84 382.44 C 533.90 388.83 528.33 394.58 531.12 400.84 C 533.87 404.16 537.41 406.89 539.17 410.97 C 536.42 410.95 533.69 410.96 530.97 411.00 C 522.09 410.96 513.22 411.12 504.36 410.80 C 500.53 406.58 493.41 410.15 490.55 406.43 C 490.16 401.84 481.93 408.24 485.44 403.48 C 482.05 401.78 479.57 392.47 484.21 388.72 C 482.16 385.40 479.76 379.03 481.84 375.04 C 488.42 370.88 471.87 369.13 485.11 370.02 C 479.50 366.74 485.02 360.14 488.72 357.23 C 487.03 356.33 483.58 355.57 486.94 354.16 C 479.34 352.13 496.22 338.41 486.92 334.95 Z" />
</g>
<g id="#ec51fdff">
<path fill="#ec51fd" opacity="1.00" d=" M 551.37 335.12 C 561.24 335.53 572.38 340.46 579.77 345.78 C 568.74 357.16 560.86 374.53 556.44 391.15 C 551.70 398.55 555.33 403.46 554.96 410.97 C 549.67 410.98 544.43 411.10 539.17 410.97 C 537.41 406.89 533.87 404.16 531.12 400.84 C 528.33 394.58 533.90 388.83 532.84 382.44 C 534.38 374.98 537.38 368.27 538.90 359.98 C 543.47 357.63 537.04 349.42 545.47 352.49 C 539.74 348.54 548.12 340.38 551.37 335.12 Z" />
</g>
<g id="#f27afdff">
<path fill="#f27afd" opacity="1.00" d=" M 556.44 391.15 C 560.86 374.53 568.74 357.16 579.77 345.78 C 586.01 351.19 593.15 355.43 597.10 362.98 C 580.78 372.90 578.83 395.40 576.86 411.05 C 569.55 410.95 562.25 411.03 554.96 410.97 C 555.33 403.46 551.70 398.55 556.44 391.15 Z" />
</g>
<g id="#f6a5fcff">
<path fill="#f6a5fc" opacity="1.00" d=" M 576.86 411.05 C 578.83 395.40 580.78 372.90 597.10 362.98 C 609.68 375.27 613.88 394.81 612.96 411.94 C 603.06 411.85 593.13 412.46 583.26 411.77 C 581.66 411.59 578.46 411.23 576.86 411.05 Z" />
</g>
<g id="#bbbabbff">
<path fill="#bbbabb" opacity="1.00" d=" M 673.05 413.91 C 674.09 399.94 670.97 382.41 673.97 369.95 C 674.14 384.25 673.78 398.56 674.07 412.87 C 693.45 413.68 712.92 411.99 732.27 413.69 C 712.54 414.27 692.78 414.01 673.05 413.91 Z" />
</g>
<g id="#585658ff">
<path fill="#585658" opacity="1.00" d=" M 759.03 370.97 C 760.15 382.74 761.40 402.43 758.98 413.95 C 759.02 399.62 758.97 385.30 759.03 370.97 Z" />
</g>
<g id="#4b0667ff">
<path fill="#4b0667" opacity="1.00" d=" M 169.99 411.02 C 180.52 410.94 191.07 411.12 201.61 410.86 C 231.15 411.03 260.71 411.23 290.26 410.73 C 319.92 411.23 349.63 411.15 379.30 410.71 C 404.61 411.39 429.97 410.95 455.30 410.80 C 471.63 411.26 488.01 411.01 504.36 410.80 C 513.22 411.12 522.09 410.96 530.97 411.00 L 531.03 411.97 C 411.00 411.39 288.43 413.29 169.99 411.02 Z" />
</g>
<g id="#9e44a7ff">
<path fill="#9e44a7" opacity="1.00" d=" M 530.97 411.00 C 533.69 410.96 536.42 410.95 539.17 410.97 C 544.43 411.10 549.67 410.98 554.96 410.97 C 562.25 411.03 569.55 410.95 576.86 411.05 C 578.46 411.23 581.66 411.59 583.26 411.77 C 565.85 412.23 548.43 411.96 531.03 411.97 L 530.97 411.00 Z" />
</g>
<g id="#781094ff">
<path fill="#781094" opacity="1.00" d=" M 286.05 439.05 C 314.59 439.71 346.12 437.53 372.96 440.02 C 344.34 440.07 315.71 439.84 287.10 440.10 C 286.78 450.38 287.10 460.66 286.99 470.95 L 286.04 471.04 C 285.94 460.37 285.91 449.71 286.05 439.05 Z" />
</g>
<g id="#da20feff">
<path fill="#da20fe" opacity="1.00" d=" M 287.10 440.10 C 315.71 439.84 344.34 440.07 372.96 440.02 C 372.99 478.62 373.11 517.24 372.92 555.84 C 369.17 562.88 359.74 556.79 354.19 555.72 C 333.73 550.21 314.03 538.54 300.56 522.67 C 294.11 519.83 302.46 514.48 297.96 513.01 C 294.21 506.12 291.35 495.93 290.96 487.22 C 283.85 486.68 287.82 476.51 286.99 470.95 C 287.10 460.66 286.78 450.38 287.10 440.10 Z" />
</g>
<g id="#4a494bff">
<path fill="#4a494b" opacity="1.00" d=" M 577.98 444.98 C 675.15 443.36 778.73 443.34 876.02 444.97 C 776.67 445.03 677.33 445.01 577.98 444.98 Z" />
</g>
<g id="#fefefeff">
<path fill="#fefefe" opacity="1.00" d=" M 435.13 583.13 C 443.62 512.20 506.36 450.16 577.98 444.98 C 677.33 445.01 776.67 445.03 876.02 444.97 C 906.38 446.48 927.14 482.23 912.55 509.63 C 906.15 522.52 892.35 531.46 878.01 532.01 C 777.90 532.38 677.67 531.23 577.64 532.57 C 541.39 535.14 512.78 569.80 516.92 606.00 C 520.95 618.58 512.27 628.49 509.04 640.10 C 500.56 661.32 493.04 682.96 483.92 703.91 C 483.03 705.67 481.80 710.40 479.78 706.23 C 455.12 682.76 437.68 650.50 434.97 616.00 C 435.05 605.04 434.88 594.08 435.13 583.13 Z" />
<path fill="#fefefe" opacity="1.00" d=" M 674.07 563.15 C 702.35 562.72 730.67 563.14 758.98 563.02 C 759.03 598.69 758.98 634.35 759.00 670.02 C 756.58 711.20 718.74 742.44 679.01 745.01 C 640.33 745.01 601.65 744.95 562.98 745.03 C 542.94 743.30 523.30 736.28 506.13 725.93 C 517.80 704.56 523.84 679.14 534.10 658.03 C 567.76 657.36 601.59 659.21 635.14 657.12 C 653.36 653.58 671.62 641.39 673.25 621.29 C 675.40 602.15 673.11 582.47 674.07 563.15 Z" />
</g>
<g id="#460b4aff">
</g>
<g id="#67146dff">
</g>
<g id="#280331ff">
<path fill="#280331" opacity="1.00" d=" M 975.26 469.10 C 978.29 467.56 975.44 472.37 975.26 469.10 Z" />
</g>
<g id="#d203feff">
<path fill="#d203fe" opacity="1.00" d=" M 286.04 471.04 L 286.99 470.95 C 287.82 476.51 283.85 486.68 290.96 487.22 C 291.35 495.93 294.21 506.12 297.96 513.01 C 302.46 514.48 294.11 519.83 300.56 522.67 C 314.03 538.54 333.73 550.21 354.19 555.72 C 359.74 556.79 369.17 562.88 372.92 555.84 C 373.01 561.55 373.05 567.27 373.00 573.01 C 372.80 593.25 373.32 613.51 372.83 633.76 C 369.08 646.90 375.35 665.35 369.24 675.83 C 369.79 680.47 361.55 672.93 363.41 679.37 C 361.89 674.48 358.06 673.91 357.08 669.20 C 352.83 671.98 344.71 668.50 350.09 663.49 C 344.63 661.47 344.88 666.62 339.91 665.81 C 338.86 661.89 347.23 661.74 343.76 658.28 C 341.49 657.35 342.41 661.69 339.91 660.58 C 338.28 657.17 328.88 658.26 332.72 652.99 C 329.72 650.66 324.87 653.63 321.93 651.89 C 320.33 645.53 315.15 642.18 310.07 638.83 C 306.06 643.16 305.54 637.93 302.63 635.76 C 302.33 638.99 300.87 641.44 297.58 638.94 C 299.92 633.98 286.92 624.38 289.33 633.32 C 288.77 633.56 287.64 634.04 287.08 634.27 C 286.37 602.42 288.03 570.41 286.38 538.65 C 285.53 516.15 286.17 493.57 286.04 471.04 Z" />
</g>
<g id="#b3b3b4ff">
<path fill="#b3b3b4" opacity="1.00" d=" M 577.64 532.57 C 677.67 531.23 777.90 532.38 878.01 532.01 C 779.80 534.02 677.39 532.93 577.64 532.57 Z" />
</g>
<g id="#8204a5ff">
<path fill="#8204a5" opacity="1.00" d=" M 286.38 538.65 C 288.03 570.41 286.37 602.42 287.08 634.27 C 286.86 659.85 287.11 685.43 286.97 711.01 C 284.96 655.46 286.14 595.75 286.38 538.65 Z" />
</g>
<g id="#afaeb0ff">
<path fill="#afaeb0" opacity="1.00" d=" M 673.09 562.05 C 701.73 561.96 730.37 561.95 759.01 562.05 L 758.98 563.02 C 730.67 563.14 702.35 562.72 674.07 563.15 C 673.11 582.47 675.40 602.15 673.25 621.29 C 672.79 601.55 672.95 581.78 673.09 562.05 Z" />
</g>
<g id="#676768ff">
<path fill="#676768" opacity="1.00" d=" M 759.01 562.05 C 760.54 595.54 760.84 636.28 759.00 670.02 C 758.98 634.35 759.03 598.69 758.98 563.02 L 759.01 562.05 Z" />
</g>
<g id="#59125eff">
</g>
<g id="#3a0847ff">
<path fill="#3a0847" opacity="1.00" d=" M 373.00 573.01 C 374.67 602.35 374.68 638.65 372.99 667.99 C 372.93 656.58 373.14 645.16 372.83 633.76 C 373.32 613.51 372.80 593.25 373.00 573.01 Z" />
</g>
<g id="#290330ff">
<path fill="#290330" opacity="1.00" d=" M 24.93 579.96 C 27.66 583.01 27.67 576.91 24.93 579.96 Z" />
</g>
<g id="#8c8c8dff">
<path fill="#8c8c8d" opacity="1.00" d=" M 434.97 616.00 C 434.07 607.93 432.18 590.64 435.13 583.13 C 434.88 594.08 435.05 605.04 434.97 616.00 Z" />
</g>
<g id="#1f0328ff">
</g>
<g id="#bb02fbff">
<path fill="#bb02fb" opacity="1.00" d=" M 289.33 633.32 C 286.92 624.38 299.92 633.98 297.58 638.94 C 300.87 641.44 302.33 638.99 302.63 635.76 C 305.54 637.93 306.06 643.16 310.07 638.83 C 315.15 642.18 320.33 645.53 321.93 651.89 C 324.87 653.63 329.72 650.66 332.72 652.99 C 328.88 658.26 338.28 657.17 339.91 660.58 C 342.41 661.69 341.49 657.35 343.76 658.28 C 347.23 661.74 338.86 661.89 339.91 665.81 C 344.88 666.62 344.63 661.47 350.09 663.49 C 344.71 668.50 352.83 671.98 357.08 669.20 C 358.06 673.91 361.89 674.48 363.41 679.37 C 361.55 672.93 369.79 680.47 369.24 675.83 C 375.35 665.35 369.08 646.90 372.83 633.76 C 373.14 645.16 372.93 656.58 372.99 667.99 C 373.53 691.70 377.58 722.44 354.91 737.92 C 331.56 756.50 290.74 740.75 286.97 711.01 C 287.11 685.43 286.86 659.85 287.08 634.27 C 287.64 634.04 288.77 633.56 289.33 633.32 Z" />
</g>
<g id="#4e0e53ff">
</g>
<g id="#a1a1a2ff">
<path fill="#a1a1a2" opacity="1.00" d=" M 534.10 658.03 C 565.56 655.70 601.83 657.53 635.14 657.12 C 601.59 659.21 567.76 657.36 534.10 658.03 Z" />
</g>
<g id="#29042fff">
<path fill="#29042f" opacity="1.00" d=" M 937.55 740.24 C 941.06 737.97 935.31 736.86 937.55 740.24 Z" />
</g>
<g id="#7c7b7cff">
<path fill="#7c7b7c" opacity="1.00" d=" M 562.98 745.03 C 601.65 744.95 640.33 745.01 679.01 745.01 C 642.57 746.65 599.51 746.66 562.98 745.03 Z" />
</g>
<g id="#16031eff">
</g>
<g id="#180320ff">
</g>
</svg>
